<svg xmlns="http://www.w3.org/2000/svg" xmlns:xlink="http://www.w3.org/1999/xlink" width="150" height="150" viewBox="0 0 150 150"><defs><filter id="a" x="0" y="0" width="150" height="150" filterUnits="userSpaceOnUse"><feOffset dy="3" input="SourceAlpha"/><feGaussianBlur stdDeviation="3" result="b"/><feFlood flood-opacity="0.161"/><feComposite operator="in" in2="b"/><feComposite in="SourceGraphic"/></filter></defs><g transform="translate(-46 -2007)"><g transform="matrix(1, 0, 0, 1, 46, 2007)" filter="url(#a)"><circle cx="66" cy="66" r="66" transform="translate(9 6)" fill="#f7f0f5"/></g><g transform="translate(-579.425 1681.706)"><path d="M774.03,396.126l14.034-3.506,10.528,47.373L784.553,443.5Z" transform="translate(-62.822 -14.624)" fill="#e9dfdb" stroke="#000" stroke-miterlimit="10" stroke-width="1"/><path d="M670.87,389.4c-1.654-4.99-1-7.82,0-9.5,2.216-3.757,6.855-3.1,9.119-7.6,1.439-2.861.685-5.345,1.826-5.7,1.312-.413,2.343,2.874,5.472,5.7,4.788,4.327,11.818,5.156,16.413,5.7,3.142.373,5.139.255,7.293,1.9a8.9,8.9,0,0,1,3.647,5.7,7.319,7.319,0,0,1,0,1.9" transform="translate(-4.366 0)" fill="#fff" stroke="#000" stroke-miterlimit="10" stroke-width="1"/><rect width="52.639" height="30.258" transform="translate(662.08 397.296)" fill="#e9dfdb" stroke="#000" stroke-miterlimit="10" stroke-width="1"/><rect width="45.525" height="8.772" transform="translate(665.586 388.524)" fill="#e9dfdb" stroke="#000" stroke-miterlimit="10" stroke-width="1"/><line x2="45.525" transform="translate(665.586 392.908)" fill="none" stroke="#000" stroke-miterlimit="10" stroke-width="1"/></g></g></svg>