<svg xmlns="http://www.w3.org/2000/svg" xmlns:xlink="http://www.w3.org/1999/xlink" width="150" height="150" viewBox="0 0 150 150"><defs><filter id="a" x="0" y="0" width="150" height="150" filterUnits="userSpaceOnUse"><feOffset dy="3" input="SourceAlpha"/><feGaussianBlur stdDeviation="3" result="b"/><feFlood flood-opacity="0.161"/><feComposite operator="in" in2="b"/><feComposite in="SourceGraphic"/></filter></defs><g transform="translate(-218 -1802)"><g transform="matrix(1, 0, 0, 1, 218, 1802)" filter="url(#a)"><circle cx="66" cy="66" r="66" transform="translate(9 6)" fill="#f7f0f5"/></g><g transform="translate(-310.5 1533.139)"><g transform="translate(556.5 315.146)"><path d="M594.5,333.237a51.661,51.661,0,0,1,6.686-6.3,53.18,53.18,0,0,1,12.034-7.068,58.288,58.288,0,0,1,11.461-3.438,55.172,55.172,0,0,1,8.023-1.146,35.393,35.393,0,0,1,6.113,0,31.937,31.937,0,0,1,12.225,3.82,51.287,51.287,0,0,1,4.584,2.674,44.291,44.291,0,0,1,8.023,6.877,45.428,45.428,0,0,0-17.192-5.349A43.474,43.474,0,0,0,624.3,325.6a74.281,74.281,0,0,0-9.169,4.2c-3.95,2.063-9.314,4.982-15.664,8.787a5.231,5.231,0,0,1-4.967-5.349Z" transform="translate(-579.981 -315.146)" fill="#967c7a" stroke="#000" stroke-linecap="round" stroke-linejoin="round" stroke-miterlimit="10" stroke-width="1"/><path d="M609.5,401.251q4.774-3.249,9.551-6.495A25.525,25.525,0,0,1,632.8,391.7a30.151,30.151,0,0,1,4.584.764,37.625,37.625,0,0,1,9.551,3.82c3.954,2.224,4.542,3.427,7.259,3.82a8.751,8.751,0,0,0,4.584-.382c4.5-1.746,5.83-7.232,6.113-8.4a14.22,14.22,0,0,0,.382-2.674,13.278,13.278,0,0,1-2.674,2.674,8.515,8.515,0,0,1-3.82,1.91,7.337,7.337,0,0,1-4.966-1.146L650,389.79l-4.2-1.91s-2.231-.909-4.2-1.528A29.452,29.452,0,0,0,620.2,387.88c-1.482.81-7.629,4.172-9.933,10.7h0a19.909,19.909,0,0,0-.764,2.674,13.212,13.212,0,0,0,6.877,6.113,33.422,33.422,0,0,0,4.966,1.528,35.251,35.251,0,0,0,5.731.764,46.146,46.146,0,0,0,6.113,0,40.22,40.22,0,0,0,6.113-1.528,35.675,35.675,0,0,0,6.113-2.674,22.832,22.832,0,0,0,2.479-1.582c.237-.176.756-.569,1.341-1.093a20.227,20.227,0,0,0,3.056-3.438" transform="translate(-589.252 -358.327)" fill="none" stroke="#000" stroke-linejoin="round" stroke-miterlimit="10" stroke-width="1.5"/><path d="M677.082,375.5a11.344,11.344,0,0,1-9.532,10.3" transform="translate(-625.124 -352.442)" fill="none" stroke="#000" stroke-linecap="round" stroke-miterlimit="10" stroke-width="1.5"/><path d="M697.742,379.5A10.263,10.263,0,0,1,688,389.624" transform="translate(-637.762 -354.914)" fill="none" stroke="#000" stroke-linecap="round" stroke-miterlimit="10" stroke-width="1.5"/><path d="M716.948,388.97a10.348,10.348,0,0,1-9.448,9.754" transform="translate(-649.812 -360.766)" fill="none" stroke="#000" stroke-linecap="round" stroke-miterlimit="10" stroke-width="1.5"/><circle cx="8.787" cy="8.787" r="8.787" transform="translate(32.473 33.755)" fill="#d9c7c5" stroke="#000" stroke-linecap="round" stroke-miterlimit="10" stroke-width="1.5"/><circle cx="3.629" cy="3.629" r="3.629" transform="translate(37.44 38.721)" fill="#fff" stroke="#000" stroke-linecap="round" stroke-miterlimit="10" stroke-width="1.5"/><path d="M556.5,338.5" transform="translate(-556.5 -329.578)" fill="none" stroke="#fff" stroke-linecap="round" stroke-miterlimit="10" stroke-width="1.5"/></g></g></g></svg>