<svg xmlns="http://www.w3.org/2000/svg" xmlns:xlink="http://www.w3.org/1999/xlink" width="150" height="150" viewBox="0 0 150 150"><defs><filter id="a" x="0" y="0" width="150" height="150" filterUnits="userSpaceOnUse"><feOffset dy="3" input="SourceAlpha"/><feGaussianBlur stdDeviation="3" result="b"/><feFlood flood-opacity="0.161"/><feComposite operator="in" in2="b"/><feComposite in="SourceGraphic"/></filter></defs><g transform="translate(-218 -2007)"><g transform="matrix(1, 0, 0, 1, 218, 2007)" filter="url(#a)"><circle cx="66" cy="66" r="66" transform="translate(9 6)" fill="#f7f0f5"/></g><g transform="translate(-342.85 1778.425)"><path d="M653.232,261.342c-1.5,2.478-4.672,3.965-7.176,5.191a55.265,55.265,0,0,1-5.358,2.3c-.159.058-.36.175-.36.363q0,8.581-.008,17.164v2.425c0,.119.172.161.381.146l12.812.005c.254,0,.813-.124.813-.458q0-11.948.011-23.893,0-1.7,0-3.4C654.346,260.821,653.338,261.168,653.232,261.342Z" transform="translate(-11.809)" fill="#d8b6c4" stroke="#000" stroke-miterlimit="10" stroke-width="1"/><rect width="16.698" height="25.69" transform="translate(627.171 287.347)" fill="#d9c7c5" stroke="#000" stroke-miterlimit="10" stroke-width="1"/><rect width="22.159" height="29.544" transform="translate(624.27 311.431)" fill="#967c7a" stroke="#000" stroke-miterlimit="10" stroke-width="1"/></g></g></svg>