<svg xmlns="http://www.w3.org/2000/svg" xmlns:xlink="http://www.w3.org/1999/xlink" width="150" height="150" viewBox="0 0 150 150"><defs><filter id="a" x="0" y="0" width="150" height="150" filterUnits="userSpaceOnUse"><feOffset dy="3" input="SourceAlpha"/><feGaussianBlur stdDeviation="3" result="b"/><feFlood flood-opacity="0.161"/><feComposite operator="in" in2="b"/><feComposite in="SourceGraphic"/></filter></defs><g transform="translate(-46 -1802)"><g transform="matrix(1, 0, 0, 1, 46, 1802)" filter="url(#a)"><circle cx="66" cy="66" r="66" transform="translate(9 6)" fill="#f7f0f5"/></g><g transform="translate(-518 1476.735)"><path d="M608.07,420.77h29.045v24.681H608.07Z" transform="translate(-0.272 -14.679)" fill="#d9c7c5"/><path d="M607,403.69v38.222h30.694V403.69Z" transform="translate(0 -10.342)" fill="none" stroke="#000" stroke-miterlimit="10" stroke-width="1"/><path d="M631.493,365.482v27.866H618.81V362.96h12.683Z" transform="translate(-2.999)" fill="none" stroke="#000" stroke-miterlimit="10" stroke-width="1"/><path d="M627.28,404.76q.011,12.736.022,25.479" transform="translate(-5.149 -10.614)" fill="none" stroke="#000" stroke-miterlimit="10" stroke-width="1"/><path d="M657.43,428.2h22.808v19.294H657.43Z" transform="translate(-12.805 -16.565)" fill="#8c7787"/><path d="M656.6,414.85v29.881h23.994V414.85Z" transform="translate(-12.594 -13.176)" fill="none" stroke="#000" stroke-miterlimit="10" stroke-width="1"/><path d="M675.753,384.977v21.786H665.83V383h9.923Z" transform="translate(-14.938 -5.088)" fill="none" stroke="#000" stroke-miterlimit="10" stroke-width="1"/><path d="M672.45,415.68q.011,9.96.022,19.921" transform="translate(-16.619 -13.386)" fill="none" stroke="#000" stroke-miterlimit="10" stroke-width="1"/></g></g></svg>